<?xml version="1.0" encoding="UTF-8"?><svg id="Layer_2" xmlns="http://www.w3.org/2000/svg" viewBox="0 0 68.20229 120.64545"><defs><style>.cls-1{fill:#fff;stroke-width:0px;}</style></defs><g id="Layer_1-2"><path class="cls-1" d="m54.36894,43.26154c-2.55835-16.76288-8.13501-31.12128-20.2677-43.26154-12.13293,12.14026-17.70959,26.49866-20.26794,43.26154C-2.3603,60.21112.00493,86.85522.26982,108.56433l18.12024-.10852,15.71118,12.18964,15.71082-12.18964,18.12036.10852c.26501-21.70911,2.63013-48.35321-13.56348-65.3028Zm-28.18811,25.0423v10.13708c-1.60095.25543-1.44861,2.2514-2.88037,2.8515l.07776.10919h-.08618v14.32611H4.2144l-1.34424,1.7066c.26025.14093.85327.35608.66504.76093-1.24707,2.6748-1.00415,5.31567.19531,7.9115l.00732.70801-1.75342.00348c-.25049-20.59302-2.30737-46.02429,12.92212-62.16321,5.59619,7.11853,9.40234,15.16577,11.50244,23.6488h-.22815Zm14.26038-2.09961v-3.45306l-1.12146-1.80933h-.1156c.39746-1.83472,2.1958-9.16241-.98047-20.75848-.95874-3.37195-3.16187-14.65082-.44336-16.67169-2.35693,0-4.00195-13.71924-2.97852-15.52753l-.70056-2.66479-.70129,2.66479c1.02344,1.80829-.62158,15.52753-2.97803,15.52753,2.71814,2.02087.51538,13.29974-.44336,16.67169-3.17676,11.59607-1.37793,18.92377-.98096,20.75848h-.11499l-1.12158,1.80933v3.45306h-.10547c-2.33472-8.4931-6.23413-16.2793-11.9917-23.38251,2.36108-14.85449,7.7041-29.48792,18.43738-40.36749,10.73291,10.87958,16.07605,25.513,18.43701,40.36749-5.75745,7.10321-9.65686,14.8894-11.99158,23.38251h-.10547Zm25.77686,40.61401l-1.73364-.00348-.00659-.70801c.66382-1.43781.95264-2.36511,1.01904-3.96014.16174-3.89197-1.88696-3.77985-.16479-4.71228l-1.34424-1.7066h-19.07739v-14.32611h-.08691l.07812-.10919c-1.43152-.6001-1.27979-2.59607-2.88025-2.8515v-10.13708h-.22839c2.10034-8.48303,5.90649-16.53027,11.50269-23.6488,15.22949,16.13892,13.17285,41.57019,12.92236,62.16321Z"/><path class="cls-1" d="m48.80766,72.12762c-.80823,3.21753,1.17871,4.961,1.16431,4.96753-.57214.26459-1.7146,3.25897-1.83215,3.70929-.14526.56018-.61804-.49512-1.16882-1.24701-.09741-.133.16577-.36322.02905-.75653-.06079-.17474-.49353-.15289-.50244-.1814-.05884-.19159-.06445-.65875-.29199-1.02679-.36499-.73157-1.13586-.9314-1.3606-1.49109-.14746.28088-.20312.32733-.17188.69794-.37549-.28613-.5293-.66864-.89136-1.13824-.67871.71124-.64282,2.17542-.01343,2.81744.4436.32318,1.19824.27539,1.56226.84406.09717.15131.08008.34753.19531.51581.12646.18494.38696.33978.52588.44141.47705.62,1.07104,5.86102,2.979,4.14142.42871-.78644.76343-1.8382,1.25391-2.29645.18726.67944.44141,1.39062.79541,2.06982-.55188.23499-.8844.4386-1.43579.67322-.11499.04877-.43481-.01984-.60107.03638-.18872.06421-.2251.25403-.3562.30939-1.42554.70001-.90332,1.58362-1.73096,3.05511.13452.06244.23364.16589.53491-.0766-.36304.81628-.60376,1.7066-.0105,1.89594.02148-.17542.05615-.31873.08521-.43134.14844.07483.59741.0379.81079-.06866.72949-.36511.73206-1.3595,1.10803-2.46924.56165-.42816,1.01331-1.15326,1.9342-1.11292.55762.10815.84326.68115.92871,1.2489-.03687.0473-.724.26941-.76685.31824-.79102.90039-2.5647,2.09668-3.72009,3.06787-3.01892,2.46014-1.24158,5.66785,1.65979,4.63141,1.51501-.54132,2.77991-2.08417,3.29297-.75598-.00757-.67938.06714-1.10858-.06543-1.78778.41284-.15063.99756-.15985,1.33228-.07574.07214.26691.1438.51794.35693.83173.09473.68622-1.125.78967-1.16528.96149.0293.3985.12402.70117.23755,1.01648.67932.0752,1.50586.02692,2.1853-.10657.56689-.19574.39331-1.13062.37244-1.60858,1.18982,1.59119,3.10315,1.96466,5.0448,1.86755,2.10767-.10559,3.88843-.87,3.30542-3.57721.27734-.26678.72339-.63489,1.41821-1.15228-.05054-.57129.44116-1.8501.30737-1.6709-.13354.17981-.92542.70221-1.28271.87354-.35693.17126-.72925-.28992-.89917-.12006-.16992.16992-.58521.35126-.92529.69086-.15698-.5448-.15784-.96472-.14343-1.54053-.00647-.34308.18677-.46759.44617-.53418-.36401-.31732-.8689-.5719-1.20166-.63855.0188-.4234-.02441-.67438-.0835-.92529.17017-.17731.18555-.16687.27222-.34418,1.4707.40942.95581,1.43927,1.5105,1.34723.54688-.1051,1.50049-1.70935.34351-2.49951-.14685-.18292-2.53662-1.63702-2.80029-1.76001-.46143-.21564-.92505-.23914-1.25977.29779-.16138.4516.13281,1.3905.19214,1.9516-.70679.31842-.32153.31543-.08032.49219.0708,1.80481-.05469,3.04834-.23682,3.00793-.85962-.19122-.146-4.35211-3.73608-4.98303-.09229-.5274-.1499-1.3985-.17932-2.00409.19226-.32111.41541-.53333.57629-.7608.14331-.95471.7998-1.60718.82617-2.96179.00635-.33221-.09766-1.6449-.76147-1.84167.79688-.87744,1.31824-1.93463,1.3894-2.96564.24609-3.57111-2.22461-7.7843-1.14307-11.17267l-.1637-.08612c-2.99158,2.4187-7.01294,5.48047-7.995,9.38989Zm7.65479-8.62201c-1.03735,3.28021,1.46619,7.23199,1.23462,10.62292-.06787.99017-.68677,1.89838-1.35059,2.65839-.25977-.117-.33765-.1593-.61768-.23853.88416-.47668,1.04712-1.71228.93481-2.64307l-1.26978.82092c.23535-.8241,1.15698-1.49164,1.74951-2.13306l-.80933-.21008.12903-.77637c-.3866-1.81732-.76648-3.63715-1.14905-5.45532l.58826-.57758-.1593-1.0304-.88184.65637.12671.81921c-1.22632,1.50348-2.45068,3.00836-3.67578,4.513.09521.29968.20618.65039.29541.93121-.76196.83807-.45264.93726-.54285,1.27887-.16785.36163-.54871.59021-.5697,1.00391l.28394.17639-.16992.35608.13.16595-.10559.14087c.19019.60999-.49609,1.2052,1.43823,1.36639l-.34058.89014c-.40503-.02753-.81616-.03455-1.37305.09308-1.19604-1.22522-1.65088-2.94434-1.24683-4.56281.84595-3.3949,4.75232-6.74847,7.35132-8.86652Z"/><path class="cls-1" d="m11.23589,62.82385c1.08154,3.38837-1.38904,7.60156-1.14307,11.17267.07104,1.03101.59253,2.0882,1.38892,2.96564-.66333.19678-.76733,1.50946-.76074,1.84167.02625,1.35461.68262,2.00708.82593,2.96179.16101.22748.38403.4397.57629.7608-.02991.60559-.08716,1.47668-.1792,2.00409-3.59009.63092-2.87646,4.79181-3.73608,4.98303-.18225.04041-.30774-1.20312-.23767-3.00793.24219-.17676.6272-.17377-.08008-.49219.05933-.5611.35352-1.5.19263-1.9516-.33447-.53693-.79858-.51343-1.26038-.29779-.26355.12299-2.65271,1.57709-2.79968,1.76001-1.15674.79016-.20312,2.39441.34351,2.49951.55469.09204.03979-.93781,1.5105-1.34723.08667.17731.10205.16687.27246.34418-.05933.25092-.10254.50189-.08374.92529-.33252.06665-.83765.32123-1.20166.63855.25891.06659.45264.1911.4458.53418.01465.57581.01392.99573-.14355,1.54053-.3396-.3396-.75537-.52094-.92529-.69086-.16968-.16986-.54175.29132-.8988.12006-.3573-.17133-1.14905-.69373-1.28284-.87354-.13354-.1792.35803,1.09961.30762,1.6709.69434.5174,1.14111.8855,1.41797,1.15228-.58276,2.70721,1.19824,3.47162,3.30566,3.57721,1.94165.09711,3.85449-.27637,5.04419-1.86755-.02026.47797-.19373,1.41284.37305,1.60858.67944.13348,1.5061.18176,2.1853.10657.11304-.31531.20776-.61798.23755-1.01648-.04041-.17181-1.26001-.27527-1.16528-.96149.21313-.31378.28467-.56482.35693-.83173.33472-.08411.91943-.07489,1.33179.07574-.13196.6792-.05737,1.1084-.0647,1.78778.51282-1.32819,1.77783.21466,3.29272.75598,2.90137,1.03644,4.67871-2.17126,1.6593-4.63141-1.15479-.97119-2.92859-2.16748-3.7196-3.06787-.04272-.04883-.72998-.27094-.76685-.31824.08569-.56775.37048-1.14075.92883-1.2489.92078-.04034,1.37244.68475,1.93372,1.11292.37646,1.10974.37842,2.10413,1.10815,2.46924.21362.10657.66284.14349.81104.06866.02905.11261.06372.25592.08521.43134.59314-.18933.35205-1.07965-.0105-1.89594.30103.24249.40002.13904.53442.0766-.82715-1.4715-.30481-2.3551-1.73047-3.05511-.1311-.05536-.16748-.24518-.3562-.30939-.16626-.05621-.48608.01239-.60107-.03638-.55176-.23462-.88452-.43823-1.43579-.67322.35425-.6792.60815-1.39038.79541-2.06982.49048.45825.8252,1.51001,1.25342,2.29645,1.9082,1.7196,2.50244-3.52142,2.979-4.14142.1394-.10162.39941-.25647.52649-.44141.11511-.16827.09802-.3645.19519-.51581.36353-.56866,1.11865-.52087,1.56177-.84406.62988-.64203.66553-2.1062-.01294-2.81744-.36206.4696-.51599.85211-.89136,1.13824.03125-.37061-.02441-.41705-.17236-.69794-.22412.55969-.99548.75952-1.36011,1.49109-.22754.36804-.23364.83521-.29224,1.02679-.00854.0285-.44141.00665-.5022.1814-.13672.39331.12646.62354.02905.75653-.55127.75189-1.02344,1.80719-1.16943,1.24701-.11694-.45032-1.2594-3.4447-1.83215-3.70929-.01379-.00653,1.97327-1.75,1.16492-4.96753-.98193-3.90942-5.00342-6.97119-7.99512-9.38989l-.16357.08612Zm7.85535,9.54828c.40344,1.61847-.05127,3.33759-1.24695,4.56281-.55688-.12762-.96802-.12061-1.37305-.09308l-.34058-.89014c1.9342-.16119,1.24805-.75641,1.43823-1.36639l-.10547-.14087.12939-.16595-.16943-.35608.28394-.17639c-.02087-.4137-.40186-.64227-.5697-1.00391-.09021-.34161.21863-.4408-.54285-1.27887.08862-.28082.2002-.63153.29468-.93121-1.22437-1.50464-2.44861-3.00952-3.67505-4.513l.12695-.81921-.88232-.65637-.15918,1.0304.58838.57758c-.38306,1.81818-.76257,3.638-1.14941,5.45532l.12952.77637-.80945.21008c.59277.64142,1.51416,1.30896,1.74951,2.13306l-1.27039-.82092c-.11157.93079.05139,2.16638.93481,2.64307-.27991.07922-.35754.12152-.61707.23853-.66431-.76001-1.28271-1.66821-1.35059-2.65839-.23145-3.39093,2.27197-7.34271,1.23462-10.62292,2.59839,2.11804,6.50537,5.47162,7.35144,8.86652Z"/></g></svg>